{
 "accessors": [
  {
   "componentType": 5126,
   "type": "VEC3",
   "count": 9365,
   "max": [
    24.41298484802246,
    168.68580627441406,
    14.577345848083496
   ],
   "min": [
    -28.167917251586914,
    -1.2594157457351685,
    -28.644392013549805
   ],
   "bufferView": 1
  },
  {
   "componentType": 5126,
   "type": "VEC3",
   "count": 9365,
   "bufferView": 2
  },
  {
   "componentType": 5126,
   "type": "VEC2",
   "count": 9365,
   "bufferView": 3
  },
  {
   "componentType": 5123,
   "type": "SCALAR",
   "count": 49416,
   "bufferView": 4
  }
 ],
 "asset": {
  "version": "2.0",
  "generator": "clara.io"
 },
 "bufferViews": [
  {
   "buffer": 0,
   "byteOffset": 0,
   "byteLength": 308729
  },
  {
   "buffer": 0,
   "byteOffset": 308732,
   "byteLength": 112380,
   "target": 34962,
   "byteStride": 12
  },
  {
   "buffer": 0,
   "byteOffset": 421112,
   "byteLength": 112380,
   "target": 34962,
   "byteStride": 12
  },
  {
   "buffer": 0,
   "byteOffset": 533492,
   "byteLength": 74920,
   "target": 34962,
   "byteStride": 8
  },
  {
   "buffer": 0,
   "byteOffset": 608412,
   "byteLength": 98832,
   "target": 34963
  }
 ],
 "buffers": [
  {
   "byteLength": 707244,
   "uri": "data:application/octet-stream;base64,"
  }
 ],
 "images": [
  {
   "name": "rp_sophia_animated_003_dif.jpg",
   "bufferView": 0,
   "mimeType": "image/jpeg"
  }
 ],
 "materials": [
  {
   "name": "rp_sophia_animated_003_mat",
   "pbrMetallicRoughness": {
    "baseColorTexture": {
     "index": 0,
     "texCoord": 0
    },
    "roughnessFactor": 0.7071,
    "metallicFactor": 0
   }
  }
 ],
 "meshes": [
  {
   "primitives": [
    {
     "indices": 3,
     "material": 0,
     "mode": 4,
     "attributes": {
      "POSITION": 0,
      "NORMAL": 1,
      "TEXCOORD_0": 2
     }
    }
   ]
  }
 ],
 "nodes": [
  {
   "name": "rp_sophia_animated_003_idling",
   "scale": [
    0.009999999776482582,
    0.009999999776482582,
    0.009999999776482582
   ],
   "children": [
    1,
    2
   ]
  },
  {
   "name": "rp_sophia_animated_003_idling_CTRL"
  },
  {
   "name": "rp_sophia_animated_003_idling_geoGRP",
   "children": [
    3
   ]
  },
  {
   "name": "rp_sophia_animated_003_idling_geo",
   "translation": [
    -3.2873001098632812,
    0,
    0
   ],
   "mesh": 0
  }
 ],
 "samplers": [
  {
   "magFilter": 9729,
   "minFilter": 9987,
   "wrapS": 10497,
   "wrapT": 10497
  }
 ],
 "scene": 0,
 "scenes": [
  {
   "nodes": [
    0
   ]
  }
 ],
 "textures": [
  {
   "sampler": 0,
   "source": 0
  }
 ]
}